# xmcd
#
# Track frame offsets: 
#        150
#        13861
#        24300
#        38891
#        52015
#        62026
#        77398
#        88243
#        100345
#        110265
#        121540
#        133754
#        144940
#        156413
#        170758
#        184392
#        194860
#        206182
#        217717
#        230044
#        241923
#        254664
#
# Disc length: 3561 seconds
#
# Revision: 0
# Processed by: cddbd v1.5.2PL0 Copyright (c) Steve Scherf et al.
# Submitted via: ExactAudioCopyFreeDBPlugin 1.0
#
DISCID=410de716
DTITLE=Ann Peebles - The Essential [CD2]
DYEAR=2015
DGENRE=R&B
TTITLE0=Give Me Some Credit
TTITLE1=My Man
TTITLE2=Walk Away
TTITLE3=Part Time Love
TTITLE4=I'll Get Along
TTITLE5=I Still Love You
TTITLE6=Generation Gap Between Us
TTITLE7=Crazy About You Baby
TTITLE8=Solid Foundation
TTITLE9=Slipped, Tripped, Fell in Love
TTITLE10=Trouble, Heartaches and Sadness
TTITLE11=Somebody's On Your Case
TTITLE12=I Feel Like Breaking Up Somebody's Home
TTITLE13=I've Been There Before
TTITLE14=I Pity the Fool
TTITLE15=99 Lbs
TTITLE16=I Can't Stand the Rain
TTITLE17=Do I Need You
TTITLE18=(You Keep Me) Hanging On
TTITLE19=Run Run Run
TTITLE20=A Love Vibration
TTITLE21=I'm Gonna Tear Your Playhouse Down
EXTD=
EXTT0=
EXTT1=
EXTT2=
EXTT3=
EXTT4=
EXTT5=
EXTT6=
EXTT7=
EXTT8=
EXTT9=
EXTT10=
EXTT11=
EXTT12=
EXTT13=
EXTT14=
EXTT15=
EXTT16=
EXTT17=
EXTT18=
EXTT19=
EXTT20=
EXTT21=
PLAYORDER=
